<svg width="42" height="79" viewBox="0 0 42 79" fill="none" xmlns="http://www.w3.org/2000/svg">
<circle cx="8.42038" cy="8.42038" r="8.42038" transform="matrix(-0.965114 0.261831 0.261831 0.965114 28.8304 0)" fill="#1C75BC"/>
<path d="M37.6811 33.7563L35.1825 21.0008C18.5634 26.1043 12.3978 31.4243 7.72905 37.4673C3.91546 42.4034 4.02511 48.645 4.55664 51.1488L6.48028 59.3966C7.1554 44.6025 26.8798 36.7961 37.6811 33.7563Z" fill="url(#paint0_linear_843_42)"/>
<path d="M32.6675 56.7303L30.5258 45.797C16.2808 50.1715 10.996 54.7315 6.99429 59.9112C3.72549 64.1422 3.81948 69.4921 4.27507 71.6382L5.92391 78.7078C6.50259 66.0271 23.4092 59.336 32.6675 56.7303Z" fill="url(#paint1_linear_843_42)"/>
<defs>
<linearGradient id="paint0_linear_843_42" x1="30.6579" y1="25.5833" x2="1.17029" y2="58.7118" gradientUnits="userSpaceOnUse">
<stop stop-color="#1C75BC"/>
<stop offset="1" stop-color="#508C17"/>
</linearGradient>
<linearGradient id="paint1_linear_843_42" x1="26.6476" y1="49.725" x2="1.37249" y2="78.1208" gradientUnits="userSpaceOnUse">
<stop stop-color="#1C75BC"/>
<stop offset="1" stop-color="#508C17"/>
</linearGradient>
</defs>
</svg>
