<svg width="390" height="74" viewBox="0 0 390 74" fill="none" xmlns="http://www.w3.org/2000/svg">
<path d="M165.204 17.2043H147.174V65.2346H139.924V17.2043H122.043V10.7359H165.204V17.2043ZM188.847 66.1639C183.048 66.1639 178.388 64.3547 174.869 60.7364C171.35 57.0932 169.59 52.025 169.59 45.5318C169.59 39.0881 171.288 34.0447 174.683 30.4015C178.103 26.7336 182.564 24.8996 188.066 24.8996C193.692 24.8996 198.178 26.6964 201.524 30.29C204.894 33.8836 206.579 38.9642 206.579 45.5318V47.2046H176.876C177.174 51.7648 178.425 55.1477 180.631 57.3534C182.862 59.5592 185.6 60.662 188.847 60.662C191.3 60.662 193.506 60.0424 195.464 58.8033C197.447 57.5393 198.488 55.7549 198.587 53.4501H205.836C205.291 57.5145 203.444 60.6496 200.297 62.8554C197.174 65.0611 193.357 66.1639 188.847 66.1639ZM199.182 41.7027C198.612 37.9109 197.335 35.0732 195.353 33.1896C193.37 31.3061 190.941 30.3643 188.066 30.3643C185.266 30.3643 182.862 31.3061 180.854 33.1896C178.847 35.0484 177.57 37.8861 177.025 41.7027H199.182ZM230.446 66.1639C224.845 66.1639 220.359 64.3671 216.988 60.7735C213.643 57.1552 211.97 52.0746 211.97 45.5318C211.97 38.9642 213.643 33.8836 216.988 30.29C220.359 26.6964 224.845 24.8996 230.446 24.8996C234.758 24.8996 238.352 25.9901 241.227 28.171C244.126 30.3519 245.836 33.4994 246.357 37.6135H239.145C239.046 35.259 238.153 33.4622 236.468 32.2231C234.808 30.9839 232.8 30.3643 230.446 30.3643C227.1 30.3643 224.386 31.6407 222.304 34.1934C220.223 36.7213 219.182 40.5007 219.182 45.5318C219.182 50.538 220.223 54.3175 222.304 56.8702C224.386 59.3981 227.1 60.662 230.446 60.662C232.8 60.662 234.808 60.0424 236.468 58.8033C238.153 57.5641 239.046 55.7797 239.145 53.4501H246.357C245.836 57.5641 244.126 60.7116 241.227 62.8925C238.352 65.0735 234.758 66.1639 230.446 66.1639ZM259.554 30.8104C263.048 26.8699 266.977 24.8996 271.338 24.8996C280.236 24.8996 284.684 29.7447 284.684 39.435V65.2346H277.658V39.7324C277.658 36.5106 277.076 34.1934 275.911 32.7807C274.771 31.3681 272.887 30.6617 270.26 30.6617C266.692 30.6617 263.123 32.7683 259.554 36.9815V65.2346H252.528V10.7359H259.554V30.8104ZM336.581 49.398C336.581 54.5033 334.846 58.4191 331.376 61.1453C327.906 63.8715 322.863 65.2346 316.246 65.2346H295.837V10.7359H315.242C321.041 10.7359 325.602 11.975 328.923 14.4534C332.244 16.9317 333.904 20.3271 333.904 24.6394C333.904 29.8934 331.289 33.7844 326.06 36.3123C329.579 37.2045 332.206 38.8526 333.941 41.2566C335.701 43.6358 336.581 46.3496 336.581 49.398ZM303.049 33.5614H315.168C319.158 33.5614 322.095 32.9294 323.978 31.6655C325.862 30.3767 326.804 28.2453 326.804 25.2713C326.804 22.5947 325.887 20.5873 324.053 19.249C322.219 17.8859 319.034 17.2043 314.499 17.2043H303.049V33.5614ZM303.049 58.7661H316.172C324.796 58.7661 329.108 55.6434 329.108 49.398C329.108 46.1513 328.105 43.7845 326.097 42.2975C324.115 40.7857 320.496 40.0298 315.242 40.0298H303.049V58.7661ZM339.004 10.7359H356.291C374.804 10.7359 384.061 19.7199 384.061 37.6878C384.061 56.0523 374.804 65.2346 356.291 65.2346H339.004V10.7359ZM346.216 58.7661H356.142C364.048 58.7661 369.438 56.9321 372.313 53.2642C375.188 49.5715 376.626 44.3793 376.626 37.6878C376.626 31.1698 375.188 26.1264 372.313 22.5576C369.463 18.9887 364.073 17.2043 356.142 17.2043H346.216V58.7661Z" fill="#494949"/>
<path d="M86.1417 0H53.4763C50.4226 0 47.6006 1.629 46.0734 4.27408L29.741 32.5629C28.2146 35.208 28.2146 38.466 29.741 41.1103L46.0734 69.3991C47.6006 72.0442 50.4226 73.6732 53.4763 73.6732H86.1417C89.1947 73.6732 92.0166 72.0442 93.5439 69.3991L109.876 41.1103C111.403 38.466 111.403 35.208 109.876 32.5629L93.5439 4.27408C92.0166 1.629 89.1947 0 86.1417 0Z" fill="url(#paint0_linear_910_50)"/>
<path d="M46.0741 4.27408L29.7418 32.5629C28.2153 35.208 28.2153 38.466 29.7418 41.1103L46.0741 69.3999C47.6014 72.0442 50.4233 73.6732 53.4763 73.6732H66.1161C66.1513 73.6152 66.1944 73.5636 66.2289 73.5049L84.6207 41.6496C86.3398 38.6711 86.3398 35.0029 84.6207 32.0243L66.2289 0.169093C66.1944 0.110383 66.1513 0.0587209 66.1161 0.000793739H53.4763C50.4226 1.09395e-05 47.6014 1.629 46.0741 4.27408Z" fill="url(#paint1_linear_910_50)"/>
<path d="M47.8588 40.9115C49.1442 42.2282 51.0448 42.9342 53.1106 42.5452C55.3541 42.1233 57.1921 40.3393 57.6641 38.1044C58.4603 34.3383 55.6085 31.02 51.9826 31.02C50.406 31.02 48.986 31.6518 47.9465 32.6725C46.3973 34.1935 44.3652 35.1188 42.1945 35.1188H28.7882C28.555 36.2531 28.555 37.4186 28.7882 38.5521H41.8735C44.0951 38.5529 46.3073 39.3208 47.8588 40.9115Z" fill="url(#paint2_linear_910_50)"/>
<path d="M28.7885 35.1196H15.9247C13.7031 35.1196 11.491 34.3516 9.93944 32.761C8.65409 31.4435 6.75345 30.7375 4.68686 31.1265C2.44336 31.55 0.60534 33.3332 0.134094 35.5681C-0.66123 39.3341 2.18972 42.6517 5.81565 42.6517C7.39221 42.6517 8.81222 42.0207 9.85256 40.9992C11.4009 39.479 13.4331 38.5529 15.6038 38.5529H28.7893C28.556 37.4186 28.556 36.2538 28.7885 35.1196Z" fill="url(#paint3_linear_910_50)"/>
<path d="M27.4897 18.7825C25.2681 18.7825 23.0559 18.0146 21.5044 16.4232C20.219 15.1065 18.3184 14.4004 16.2518 14.7895C14.0083 15.2122 12.1711 16.9962 11.699 19.2311C10.9037 22.9963 13.7547 26.3146 17.3806 26.3146C18.9572 26.3146 20.3771 25.6829 21.4175 24.6621C22.9659 23.1412 24.998 22.2159 27.1687 22.2159H35.7161L37.6981 18.7825H27.4897Z" fill="url(#paint4_linear_910_50)"/>
<path d="M27.4897 51.4573C25.2681 51.4573 23.0559 50.6894 21.5044 49.098C20.219 47.7805 18.3184 47.0752 16.2518 47.4643C14.0083 47.887 12.1711 49.671 11.699 51.9051C10.9037 55.6712 13.7547 58.9894 17.3806 58.9894C18.9572 58.9894 20.3771 58.3577 21.4175 57.3369C22.9659 55.816 24.998 54.8899 27.1687 54.8899H37.6981L35.7161 51.4573H27.4897Z" fill="url(#paint5_linear_910_50)"/>
<path d="M59.424 57.2485C60.7086 58.566 62.6092 59.2713 64.6751 58.883C66.9193 58.4603 68.7566 56.6763 69.2286 54.4422C70.0247 50.6761 67.173 47.3571 63.547 47.3571C61.9705 47.3571 60.5505 47.9888 59.5109 49.0103C57.9626 50.5305 55.9304 51.4566 53.7597 51.4566H35.7146L37.6967 54.8892L53.4372 54.8899C55.6603 54.8907 57.8725 55.6587 59.424 57.2485Z" fill="url(#paint6_linear_910_50)"/>
<path d="M47.8588 40.9115C49.1442 42.2282 51.0448 42.9342 53.1106 42.5452C55.3541 42.1233 57.1921 40.3393 57.6641 38.1044C58.4603 34.3383 55.6085 31.02 51.9826 31.02C50.406 31.02 48.986 31.6518 47.9465 32.6725C46.3973 34.1935 44.3652 35.1188 42.1945 35.1188H28.7882C28.555 36.2531 28.555 37.4186 28.7882 38.5521H41.8735C44.0951 38.5529 46.3073 39.3208 47.8588 40.9115Z" fill="white"/>
<path d="M59.424 24.5737C60.7086 25.8911 62.6092 26.5964 64.6751 26.2081C66.9193 25.7854 68.7566 24.0022 69.2286 21.7673C70.0247 18.0013 67.173 14.683 63.547 14.683C61.9705 14.683 60.5505 15.3139 59.5109 16.3355C57.9626 17.8557 55.9304 18.7817 53.7597 18.7817H37.6967L35.7146 22.2151H53.438C55.6603 22.2159 57.8725 22.9838 59.424 24.5737Z" fill="white"/>
<path d="M59.424 57.2485C60.7086 58.566 62.6092 59.2713 64.6751 58.883C66.9193 58.4603 68.7566 56.6763 69.2286 54.4422C70.0247 50.6761 67.173 47.3571 63.547 47.3571C61.9705 47.3571 60.5505 47.9888 59.5109 49.0103C57.9626 50.5305 55.9304 51.4566 53.7597 51.4566H35.7146L37.6967 54.8892L53.4372 54.8899C55.6603 54.8907 57.8725 55.6587 59.424 57.2485Z" fill="white"/>
<defs>
<linearGradient id="paint0_linear_910_50" x1="96.1232" y1="85.0803" x2="49.6113" y2="-0.191485" gradientUnits="userSpaceOnUse">
<stop stop-color="#508C17"/>
<stop offset="0.1683" stop-color="#67A020"/>
<stop offset="0.5452" stop-color="#96C932"/>
<stop offset="0.8348" stop-color="#B3E33E"/>
<stop offset="1" stop-color="#BEEC42"/>
</linearGradient>
<linearGradient id="paint1_linear_910_50" x1="87.2235" y1="43.0759" x2="23.0946" y2="28.7312" gradientUnits="userSpaceOnUse">
<stop offset="0.0845" stop-color="#508C17"/>
<stop offset="0.1982" stop-color="#69A221"/>
<stop offset="0.3933" stop-color="#8EC22F"/>
<stop offset="0.5753" stop-color="#A8D939"/>
<stop offset="0.7372" stop-color="#B8E740"/>
<stop offset="0.8626" stop-color="#BEEC42"/>
</linearGradient>
<linearGradient id="paint2_linear_910_50" x1="87.9653" y1="33.6036" x2="32.2854" y2="38.6048" gradientUnits="userSpaceOnUse">
<stop offset="0.0519" stop-color="#508C17"/>
<stop offset="0.2115" stop-color="#67A020"/>
<stop offset="0.5688" stop-color="#96C932"/>
<stop offset="0.8433" stop-color="#B3E33E"/>
<stop offset="1" stop-color="#BEEC42"/>
</linearGradient>
<linearGradient id="paint3_linear_910_50" x1="36.6977" y1="59.4851" x2="5.81375" y2="28.6011" gradientUnits="userSpaceOnUse">
<stop offset="0.0519" stop-color="#508C17"/>
<stop offset="0.2115" stop-color="#67A020"/>
<stop offset="0.5688" stop-color="#96C932"/>
<stop offset="0.8433" stop-color="#B3E33E"/>
<stop offset="1" stop-color="#BEEC42"/>
</linearGradient>
<linearGradient id="paint4_linear_910_50" x1="47.4493" y1="43.6631" x2="16.7138" y2="12.9276" gradientUnits="userSpaceOnUse">
<stop offset="0.0519" stop-color="#508C17"/>
<stop offset="0.2115" stop-color="#67A020"/>
<stop offset="0.5688" stop-color="#96C932"/>
<stop offset="0.8433" stop-color="#B3E33E"/>
<stop offset="1" stop-color="#BEEC42"/>
</linearGradient>
<linearGradient id="paint5_linear_910_50" x1="47.0222" y1="76.9023" x2="16.2183" y2="46.0984" gradientUnits="userSpaceOnUse">
<stop offset="0.0519" stop-color="#508C17"/>
<stop offset="0.2115" stop-color="#67A020"/>
<stop offset="0.5688" stop-color="#96C932"/>
<stop offset="0.8433" stop-color="#B3E33E"/>
<stop offset="1" stop-color="#BEEC42"/>
</linearGradient>
<linearGradient id="paint6_linear_910_50" x1="89.5146" y1="50.8412" x2="33.8341" y2="55.8425" gradientUnits="userSpaceOnUse">
<stop offset="0.0519" stop-color="#508C17"/>
<stop offset="0.2115" stop-color="#67A020"/>
<stop offset="0.5688" stop-color="#96C932"/>
<stop offset="0.8433" stop-color="#B3E33E"/>
<stop offset="1" stop-color="#BEEC42"/>
</linearGradient>
</defs>
</svg>
