<svg width="315" height="44" viewBox="0 0 315 44" fill="none" xmlns="http://www.w3.org/2000/svg">
<path d="M97.67 9.42818H86.9445V38H82.6322V9.42818H71.9951V5.58027H97.67V9.42818ZM111.735 38.5529C108.285 38.5529 105.513 37.4766 103.42 35.3242C101.326 33.1569 100.279 30.142 100.279 26.2794C100.279 22.4462 101.289 19.446 103.309 17.2788C105.344 15.0968 107.997 14.0059 111.27 14.0059C114.617 14.0059 117.285 15.0747 119.276 17.2125C121.281 19.3502 122.283 22.3725 122.283 26.2794V27.2745H104.614C104.791 29.9872 105.535 31.9996 106.847 33.3117C108.174 34.6239 109.803 35.2799 111.735 35.2799C113.194 35.2799 114.506 34.9114 115.671 34.1742C116.851 33.4223 117.47 32.3608 117.529 30.9897H121.841C121.517 33.4076 120.418 35.2726 118.546 36.5847C116.688 37.8968 114.418 38.5529 111.735 38.5529ZM117.883 24.0016C117.543 21.7459 116.784 20.0578 115.605 18.9374C114.425 17.8169 112.981 17.2567 111.27 17.2567C109.604 17.2567 108.174 17.8169 106.98 18.9374C105.786 20.0431 105.027 21.7312 104.702 24.0016H117.883ZM136.481 38.5529C133.149 38.5529 130.48 37.484 128.475 35.3463C126.485 33.1938 125.49 30.1715 125.49 26.2794C125.49 22.3725 126.485 19.3502 128.475 17.2125C130.48 15.0747 133.149 14.0059 136.481 14.0059C139.046 14.0059 141.184 14.6546 142.894 15.9519C144.619 17.2493 145.636 19.1217 145.946 21.569H141.656C141.597 20.1684 141.066 19.0995 140.063 18.3624C139.076 17.6253 137.881 17.2567 136.481 17.2567C134.49 17.2567 132.876 18.0159 131.638 19.5345C130.399 21.0382 129.78 23.2865 129.78 26.2794C129.78 29.2574 130.399 31.5057 131.638 33.0243C132.876 34.528 134.49 35.2799 136.481 35.2799C137.881 35.2799 139.076 34.9114 140.063 34.1742C141.066 33.4371 141.597 32.3756 141.656 30.9897H145.946C145.636 33.4371 144.619 35.3094 142.894 36.6068C141.184 37.9042 139.046 38.5529 136.481 38.5529ZM153.796 17.5221C155.875 15.1779 158.212 14.0059 160.807 14.0059C166.099 14.0059 168.746 16.8881 168.746 22.6526V38H164.566V22.8295C164.566 20.9129 164.22 19.5345 163.527 18.6941C162.849 17.8538 161.728 17.4336 160.165 17.4336C158.042 17.4336 155.919 18.6867 153.796 21.193V38H149.617V5.58027H153.796V17.5221ZM199.617 28.5793C199.617 31.6163 198.585 33.9457 196.521 35.5674C194.457 37.1891 191.457 38 187.521 38H175.38V5.58027H186.924C190.374 5.58027 193.086 6.31742 195.062 7.79171C197.037 9.26601 198.025 11.2858 198.025 13.8511C198.025 16.9766 196.47 19.2912 193.359 20.795C195.453 21.3257 197.015 22.3061 198.047 23.7362C199.094 25.1515 199.617 26.7659 199.617 28.5793ZM179.67 19.1585H186.88C189.253 19.1585 191 18.7826 192.121 18.0307C193.241 17.2641 193.801 15.9962 193.801 14.227C193.801 12.6348 193.256 11.4406 192.165 10.6445C191.074 9.83361 189.179 9.42818 186.481 9.42818H179.67V19.1585ZM179.67 34.1521H187.477C192.607 34.1521 195.172 32.2945 195.172 28.5793C195.172 26.6479 194.575 25.24 193.381 24.3554C192.202 23.4561 190.049 23.0064 186.924 23.0064H179.67V34.1521ZM201.059 5.58027H211.342C222.355 5.58027 227.862 10.9246 227.862 21.6132C227.862 32.5377 222.355 38 211.342 38H201.059V5.58027ZM205.349 34.1521H211.254C215.957 34.1521 219.164 33.0611 220.874 30.8792C222.584 28.6825 223.439 25.5938 223.439 21.6132C223.439 17.7358 222.584 14.7356 220.874 12.6127C219.178 10.4897 215.972 9.42818 211.254 9.42818H205.349V34.1521ZM262.214 38H257.902V22.7411H241.051V38H236.761V5.58027H241.051V18.8931H257.902V5.58027H262.214V38ZM279.269 35.0146C277.19 37.3734 274.854 38.5529 272.259 38.5529C266.966 38.5529 264.32 35.6632 264.32 29.884V14.5366H268.499V29.7071C268.499 31.6237 268.838 33.0021 269.517 33.8425C270.195 34.6828 271.315 35.103 272.878 35.103C275.207 35.103 277.338 33.8499 279.269 31.3436V14.5366H283.427V38H279.269V35.0146ZM289.269 17.3451C291.127 15.119 293.36 14.0059 295.97 14.0059C299.036 14.0059 301.41 15.0968 303.091 17.2788C304.771 19.446 305.612 22.3799 305.612 26.0803C305.612 29.9282 304.668 32.9727 302.781 35.2136C300.909 37.4398 298.543 38.5529 295.682 38.5529C293.147 38.5529 291.009 37.7641 289.269 36.1866V38H285.09V5.58027H289.269V17.3451ZM289.269 32.4272C291.053 34.329 293.102 35.2799 295.417 35.2799C297.216 35.2799 298.646 34.5133 299.707 32.98C300.769 31.432 301.299 29.1321 301.299 26.0803C301.299 23.1907 300.798 21.0014 299.796 19.5124C298.793 18.0086 297.393 17.2567 295.594 17.2567C293.279 17.2567 291.171 18.5983 289.269 21.2815V32.4272Z" fill="white"/>
<path d="M51.2433 0H31.8115C29.995 0 28.3162 0.969046 27.4077 2.54253L17.6921 19.3707C16.784 20.9442 16.784 22.8823 17.6921 24.4553L27.4077 41.2836C28.3162 42.857 29.995 43.8261 31.8115 43.8261H51.2433C53.0594 43.8261 54.7381 42.857 55.6466 41.2836L65.3623 24.4553C66.2703 22.8823 66.2703 20.9442 65.3623 19.3707L55.6466 2.54253C54.7381 0.969046 53.0594 0 51.2433 0Z" fill="url(#paint0_linear_960_78)"/>
<path d="M27.4082 2.5423L17.6926 19.3705C16.7845 20.944 16.7845 22.8821 17.6926 24.4551L27.4082 41.2838C28.3167 42.8568 29.9955 43.8259 31.8115 43.8259H39.3306C39.3516 43.7914 39.3772 43.7607 39.3977 43.7257L50.3385 24.776C51.3611 23.0041 51.3611 20.822 50.3385 19.0501L39.3977 0.100361C39.3772 0.0654357 39.3516 0.0347035 39.3306 0.000244308H31.8115C29.995 -0.000221357 28.3167 0.968821 27.4082 2.5423Z" fill="url(#paint1_linear_960_78)"/>
<path d="M28.4698 24.337C29.2344 25.1203 30.365 25.5403 31.5939 25.3089C32.9285 25.0579 34.0219 23.9966 34.3027 22.6672C34.7763 20.4268 33.0799 18.4529 30.9229 18.4529C29.9851 18.4529 29.1404 18.8287 28.5219 19.4359C27.6004 20.3407 26.3915 20.8911 25.1002 20.8911H17.1253C16.9865 21.5659 16.9865 22.2592 17.1253 22.9335H24.9093C26.2309 22.934 27.5468 23.3908 28.4698 24.337Z" fill="url(#paint2_linear_960_78)"/>
<path d="M17.1255 20.8914H9.47317C8.15161 20.8914 6.83564 20.4346 5.91269 19.4883C5.14807 18.7046 4.01744 18.2846 2.78808 18.516C1.45349 18.7679 0.360099 19.8287 0.0797689 21.1582C-0.393347 23.3985 1.3026 25.372 3.45957 25.372C4.39742 25.372 5.24214 24.9967 5.86101 24.389C6.78209 23.4847 7.99095 22.9338 9.28224 22.9338H17.1259C16.9872 22.259 16.9872 21.5661 17.1255 20.8914Z" fill="url(#paint3_linear_960_78)"/>
<path d="M16.3528 11.1731C15.0313 11.1731 13.7153 10.7163 12.7923 9.76959C12.0277 8.98634 10.8971 8.56632 9.66771 8.79776C8.33311 9.04922 7.2402 10.1105 6.95941 11.4399C6.48629 13.6798 8.18224 15.6537 10.3392 15.6537C11.2771 15.6537 12.1218 15.278 12.7406 14.6707C13.6617 13.7659 14.8706 13.2155 16.1619 13.2155H21.2465L22.4255 11.1731H16.3528Z" fill="url(#paint4_linear_960_78)"/>
<path d="M16.3528 30.6104C15.0313 30.6104 13.7153 30.1536 12.7923 29.2069C12.0277 28.4232 10.8971 28.0036 9.66771 28.2351C8.33311 28.4865 7.2402 29.5478 6.95941 30.8768C6.48629 33.1171 8.18224 35.091 10.3392 35.091C11.2771 35.091 12.1218 34.7153 12.7406 34.108C13.6617 33.2032 14.8706 32.6524 16.1619 32.6524H22.4255L21.2465 30.6104H16.3528Z" fill="url(#paint5_linear_960_78)"/>
<path d="M35.3497 34.0553C36.1138 34.839 37.2445 35.2586 38.4734 35.0276C39.8084 34.7761 40.9014 33.7149 41.1821 32.3859C41.6557 30.1456 39.9593 28.1711 37.8023 28.1711C36.8645 28.1711 36.0198 28.5469 35.4014 29.1546C34.4803 30.0589 33.2714 30.6098 31.9801 30.6098H21.2456L22.4247 32.6518L31.7883 32.6522C33.1108 32.6527 34.4267 33.1095 35.3497 34.0553Z" fill="url(#paint6_linear_960_78)"/>
<path d="M28.4698 24.3368C29.2344 25.12 30.365 25.5401 31.5939 25.3086C32.9285 25.0576 34.0219 23.9964 34.3027 22.6669C34.7763 20.4266 33.0799 18.4526 30.9229 18.4526C29.9851 18.4526 29.1404 18.8284 28.5219 19.4357C27.6004 20.3405 26.3915 20.8909 25.1002 20.8909H17.1253C16.9865 21.5656 16.9865 22.259 17.1253 22.9333H24.9093C26.2309 22.9337 27.5468 23.3906 28.4698 24.3368Z" fill="white"/>
<path d="M35.3496 14.6181C36.1138 15.4018 37.2444 15.8213 38.4733 15.5904C39.8084 15.3389 40.9013 14.2781 41.1821 12.9487C41.6557 10.7083 39.9592 8.73438 37.8023 8.73438C36.8644 8.73438 36.0197 9.1097 35.4013 9.71739C34.4802 10.6217 33.2714 11.1726 31.9801 11.1726H22.4246L21.2455 13.215H31.7887C33.1107 13.2155 34.4267 13.6723 35.3496 14.6181Z" fill="white"/>
<path d="M35.3496 34.0553C36.1138 34.839 37.2444 35.2586 38.4733 35.0276C39.8084 34.7761 40.9013 33.7149 41.1821 32.3859C41.6557 30.1456 39.9592 28.1711 37.8023 28.1711C36.8644 28.1711 36.0197 28.5469 35.4013 29.1546C34.4802 30.0589 33.2714 30.6098 31.9801 30.6098H21.2455L22.4246 32.6518L31.7882 32.6522C33.1107 32.6527 34.4267 33.1095 35.3496 34.0553Z" fill="white"/>
<defs>
<linearGradient id="paint0_linear_960_78" x1="57.181" y1="50.6119" x2="29.5124" y2="-0.113909" gradientUnits="userSpaceOnUse">
<stop stop-color="#508C17"/>
<stop offset="0.1683" stop-color="#67A020"/>
<stop offset="0.5452" stop-color="#96C932"/>
<stop offset="0.8348" stop-color="#B3E33E"/>
<stop offset="1" stop-color="#BEEC42"/>
</linearGradient>
<linearGradient id="paint1_linear_960_78" x1="51.8868" y1="25.6244" x2="13.7383" y2="17.0912" gradientUnits="userSpaceOnUse">
<stop offset="0.0845" stop-color="#508C17"/>
<stop offset="0.1982" stop-color="#69A221"/>
<stop offset="0.3933" stop-color="#8EC22F"/>
<stop offset="0.5753" stop-color="#A8D939"/>
<stop offset="0.7372" stop-color="#B8E740"/>
<stop offset="0.8626" stop-color="#BEEC42"/>
</linearGradient>
<linearGradient id="paint2_linear_960_78" x1="52.328" y1="19.9898" x2="19.2056" y2="22.9648" gradientUnits="userSpaceOnUse">
<stop offset="0.0519" stop-color="#508C17"/>
<stop offset="0.2115" stop-color="#67A020"/>
<stop offset="0.5688" stop-color="#96C932"/>
<stop offset="0.8433" stop-color="#B3E33E"/>
<stop offset="1" stop-color="#BEEC42"/>
</linearGradient>
<linearGradient id="paint3_linear_960_78" x1="21.8304" y1="35.3857" x2="3.45844" y2="17.0137" gradientUnits="userSpaceOnUse">
<stop offset="0.0519" stop-color="#508C17"/>
<stop offset="0.2115" stop-color="#67A020"/>
<stop offset="0.5688" stop-color="#96C932"/>
<stop offset="0.8433" stop-color="#B3E33E"/>
<stop offset="1" stop-color="#BEEC42"/>
</linearGradient>
<linearGradient id="paint4_linear_960_78" x1="28.2262" y1="25.9739" x2="9.94254" y2="7.69021" gradientUnits="userSpaceOnUse">
<stop offset="0.0519" stop-color="#508C17"/>
<stop offset="0.2115" stop-color="#67A020"/>
<stop offset="0.5688" stop-color="#96C932"/>
<stop offset="0.8433" stop-color="#B3E33E"/>
<stop offset="1" stop-color="#BEEC42"/>
</linearGradient>
<linearGradient id="paint5_linear_960_78" x1="27.9721" y1="45.7469" x2="9.64777" y2="27.4225" gradientUnits="userSpaceOnUse">
<stop offset="0.0519" stop-color="#508C17"/>
<stop offset="0.2115" stop-color="#67A020"/>
<stop offset="0.5688" stop-color="#96C932"/>
<stop offset="0.8433" stop-color="#B3E33E"/>
<stop offset="1" stop-color="#BEEC42"/>
</linearGradient>
<linearGradient id="paint6_linear_960_78" x1="53.2497" y1="30.2438" x2="20.1269" y2="33.2189" gradientUnits="userSpaceOnUse">
<stop offset="0.0519" stop-color="#508C17"/>
<stop offset="0.2115" stop-color="#67A020"/>
<stop offset="0.5688" stop-color="#96C932"/>
<stop offset="0.8433" stop-color="#B3E33E"/>
<stop offset="1" stop-color="#BEEC42"/>
</linearGradient>
</defs>
</svg>
