<svg width="300" height="145" viewBox="0 0 300 145" fill="none" xmlns="http://www.w3.org/2000/svg">
<g clip-path="url(#clip0_14_325)">
<path d="M34.59 26.22H17.4V43.41H34.59V26.22Z" fill="#FE6D18"/>
<path d="M17.19 3.76999H0V20.96H17.19V3.76999Z" fill="url(#paint0_linear_14_325)"/>
<path d="M40.0699 75.67V3.55998H61.5299V26.22H78.1899V43.41H61.5299V71.41C61.5299 76.61 63.3999 79.94 70.0599 79.94C73.6599 79.94 75.1299 79.53 78.5899 78.87V95.94C76.9899 96.74 72.1999 98.74 63.5299 98.74C48.1999 98.74 40.0699 90.07 40.0699 75.68V75.66V75.67ZM95.3799 89.94C88.4399 83 84.4499 73.14 84.4499 61.82C84.4499 48.22 89.3799 38.49 96.8499 32.1C103.12 26.76 111.39 24.36 119.78 24.36C142.04 24.36 153.77 39.7 153.77 61.42C153.77 64.35 153.5 67.15 153.37 67.95H105.91C105.91 75.82 110.98 83.15 120.31 83.15C129.64 83.15 132.18 78.75 133.11 75.02H152.31C149.11 90.36 135.65 99.28 120.05 99.28C109.92 99.28 101.38 95.95 95.3899 89.95H95.3799V89.94ZM132.58 54.35C132.58 45.82 128.18 40.49 119.64 40.49C111.1 40.49 106.17 47.16 105.9 54.35H132.57H132.58ZM168.97 87.54C163.1 80.87 160.3 72.07 160.3 61.81C160.3 51.55 163.23 42.88 168.97 36.08C174.17 29.94 182.83 24.35 196.56 24.35C215.09 24.35 227.35 35.95 227.89 52.88H208.56C208.43 46.74 203.76 42.22 196.16 42.22C190.96 42.22 187.37 44.48 185.11 47.95C182.58 51.69 181.64 55.82 181.64 61.81C181.64 67.8 182.44 72.08 184.97 75.8C187.23 79.13 190.7 81.4 196.57 81.4C204.83 81.4 208.44 75.67 208.97 71.13H228.17C227.37 88.46 214.04 99.25 195.64 99.25C182.44 99.25 174.18 93.52 168.98 87.52H168.97V87.54ZM256.42 0.889984V32.35C260.42 27.42 266.82 24.36 274.41 24.36C292.01 24.36 300 35.16 300 51.16V97.42H278.54V53.16C278.54 46.36 274.94 43.03 268.81 43.03C260.14 43.03 256.41 50.77 256.41 59.96V97.42H234.95V0.889984H256.42Z" fill="#03464C"/>
<path d="M88.54 124.28H98.22C102.07 124.28 104.4 126.35 104.4 129.48C104.4 131.66 103.4 133.16 101.33 133.93C103.8 134.47 105.18 136.31 105.18 138.73C105.18 142.26 102.45 144.38 98 144.38H88.55V124.28H88.54ZM97.22 132.12C98.57 132.12 99.49 131.4 99.49 130.17C99.49 129.05 98.65 128.3 97.14 128.3H93.38V132.11H97.23L97.22 132.12ZM97.7 140.37C99.23 140.37 100.28 139.63 100.28 138.25C100.28 136.95 99.33 136.15 97.61 136.15H93.36V140.37H97.7ZM113.78 136.76L106.75 124.3H112.21L116.26 132.03L120.31 124.3H125.77L118.73 136.76V144.4H113.79V136.76H113.8H113.78ZM137.23 124.28H145.58C151.58 124.28 155.92 128.65 155.92 134.34C155.92 140.03 151.58 144.4 145.58 144.4H137.23V124.3V124.28ZM144.96 140.17C148.49 140.17 150.99 137.79 150.99 134.34C150.99 130.89 148.49 128.51 144.96 128.51H142.15V140.16H144.96V140.17ZM160.46 124.28H175.76V128.56H165.39V132.03H175.38V136.31H165.39V140.1H175.99V144.38H160.46V124.28ZM180.05 137.96H184.85C185.23 139.72 186.49 140.92 188.73 140.92C190.74 140.92 192.03 140.03 192.03 138.59C192.03 137.56 191.37 136.9 189.88 136.6L185.69 135.76C182.36 135.1 180.5 133.46 180.5 130.14C180.5 126.52 183.74 123.88 188.34 123.88C192.94 123.88 196.06 126.33 196.26 130.34H191.52C191.26 128.84 190.2 127.76 188.3 127.76C186.4 127.76 185.29 128.45 185.29 129.77C185.29 130.72 185.86 131.15 187.07 131.38L191.64 132.24C195.03 132.87 196.83 134.8 196.83 137.96C196.83 142.01 193.41 144.8 188.68 144.8C183.95 144.8 180.5 142.14 180.07 137.96H180.06H180.05ZM201.29 124.28H206.23V144.38H201.29V124.28ZM220.85 128.19C217.5 128.19 215.57 131.23 215.57 134.34C215.57 137.73 217.33 140.65 220.8 140.65C223.5 140.65 224.91 139.24 225.37 137.55H220.06V133.41H230.46V135.3C230.46 140.92 226.81 144.78 220.81 144.78C214.09 144.78 210.64 139.87 210.64 134.33C210.64 128.79 214.46 123.88 220.75 123.88C225.78 123.88 229.22 126.46 230.2 130.8H225.2C224.59 129.31 223.16 128.19 220.86 128.19H220.85ZM234.1 124.28H238.58L247.91 136.49V124.28H252.59V144.38H248.08L238.78 132.17V144.38H234.1V124.28Z" fill="#FE6D18"/>
</g>
<defs>
<linearGradient id="paint0_linear_14_325" x1="-0.9" y1="4.75999" x2="39.48" y2="37.16" gradientUnits="userSpaceOnUse">
<stop offset="0.04" stop-color="#F7D432"/>
<stop offset="0.48" stop-color="#FFA11C"/>
<stop offset="1" stop-color="#FF7019"/>
</linearGradient>
<clipPath id="clip0_14_325">
<rect width="300" height="143.89" fill="white" transform="translate(0 0.889984)"/>
</clipPath>
</defs>
</svg>
