<svg width="316" height="44" viewBox="0 0 316 44" fill="none" xmlns="http://www.w3.org/2000/svg">
<path d="M98.67 9.42818H87.9445V38H83.6322V9.42818H72.9951V5.58027H98.67V9.42818ZM112.735 38.5529C109.285 38.5529 106.513 37.4766 104.42 35.3242C102.326 33.1569 101.279 30.142 101.279 26.2794C101.279 22.4462 102.289 19.446 104.309 17.2788C106.344 15.0968 108.997 14.0059 112.27 14.0059C115.617 14.0059 118.285 15.0747 120.276 17.2125C122.281 19.3502 123.283 22.3725 123.283 26.2794V27.2745H105.614C105.791 29.9872 106.535 31.9996 107.847 33.3117C109.174 34.6239 110.803 35.2799 112.735 35.2799C114.194 35.2799 115.506 34.9114 116.671 34.1742C117.851 33.4223 118.47 32.3608 118.529 30.9897H122.841C122.517 33.4076 121.418 35.2726 119.546 36.5847C117.688 37.8968 115.418 38.5529 112.735 38.5529ZM118.883 24.0016C118.543 21.7459 117.784 20.0578 116.605 18.9374C115.425 17.8169 113.981 17.2567 112.27 17.2567C110.604 17.2567 109.174 17.8169 107.98 18.9374C106.786 20.0431 106.027 21.7312 105.702 24.0016H118.883ZM137.481 38.5529C134.149 38.5529 131.48 37.484 129.475 35.3463C127.485 33.1938 126.49 30.1715 126.49 26.2794C126.49 22.3725 127.485 19.3502 129.475 17.2125C131.48 15.0747 134.149 14.0059 137.481 14.0059C140.046 14.0059 142.184 14.6546 143.894 15.9519C145.619 17.2493 146.636 19.1217 146.946 21.569H142.656C142.597 20.1684 142.066 19.0995 141.063 18.3624C140.076 17.6253 138.881 17.2567 137.481 17.2567C135.49 17.2567 133.876 18.0159 132.638 19.5345C131.399 21.0382 130.78 23.2865 130.78 26.2794C130.78 29.2574 131.399 31.5057 132.638 33.0243C133.876 34.528 135.49 35.2799 137.481 35.2799C138.881 35.2799 140.076 34.9114 141.063 34.1742C142.066 33.4371 142.597 32.3756 142.656 30.9897H146.946C146.636 33.4371 145.619 35.3094 143.894 36.6068C142.184 37.9042 140.046 38.5529 137.481 38.5529ZM154.796 17.5221C156.875 15.1779 159.212 14.0059 161.807 14.0059C167.099 14.0059 169.746 16.8881 169.746 22.6526V38H165.566V22.8295C165.566 20.9129 165.22 19.5345 164.527 18.6941C163.849 17.8538 162.728 17.4336 161.165 17.4336C159.042 17.4336 156.919 18.6867 154.796 21.193V38H150.617V5.58027H154.796V17.5221ZM200.617 28.5793C200.617 31.6163 199.585 33.9457 197.521 35.5674C195.457 37.1891 192.457 38 188.521 38H176.38V5.58027H187.924C191.374 5.58027 194.086 6.31742 196.062 7.79171C198.037 9.26601 199.025 11.2858 199.025 13.8511C199.025 16.9766 197.47 19.2912 194.359 20.795C196.453 21.3257 198.015 22.3061 199.047 23.7362C200.094 25.1515 200.617 26.7659 200.617 28.5793ZM180.67 19.1585H187.88C190.253 19.1585 192 18.7826 193.121 18.0307C194.241 17.2641 194.801 15.9962 194.801 14.227C194.801 12.6348 194.256 11.4406 193.165 10.6445C192.074 9.83361 190.179 9.42818 187.481 9.42818H180.67V19.1585ZM180.67 34.1521H188.477C193.607 34.1521 196.172 32.2945 196.172 28.5793C196.172 26.6479 195.575 25.24 194.381 24.3554C193.202 23.4561 191.049 23.0064 187.924 23.0064H180.67V34.1521ZM202.059 5.58027H212.342C223.355 5.58027 228.862 10.9246 228.862 21.6132C228.862 32.5377 223.355 38 212.342 38H202.059V5.58027ZM206.349 34.1521H212.254C216.957 34.1521 220.164 33.0611 221.874 30.8792C223.584 28.6825 224.439 25.5938 224.439 21.6132C224.439 17.7358 223.584 14.7356 221.874 12.6127C220.178 10.4897 216.972 9.42818 212.254 9.42818H206.349V34.1521ZM263.214 38H258.902V22.7411H242.051V38H237.761V5.58027H242.051V18.8931H258.902V5.58027H263.214V38ZM280.269 35.0146C278.19 37.3734 275.854 38.5529 273.259 38.5529C267.966 38.5529 265.32 35.6632 265.32 29.884V14.5366H269.499V29.7071C269.499 31.6237 269.838 33.0021 270.517 33.8425C271.195 34.6828 272.315 35.103 273.878 35.103C276.207 35.103 278.338 33.8499 280.269 31.3436V14.5366H284.427V38H280.269V35.0146ZM290.269 17.3451C292.127 15.119 294.36 14.0059 296.97 14.0059C300.036 14.0059 302.41 15.0968 304.091 17.2788C305.771 19.446 306.612 22.3799 306.612 26.0803C306.612 29.9282 305.668 32.9727 303.781 35.2136C301.909 37.4398 299.543 38.5529 296.682 38.5529C294.147 38.5529 292.009 37.7641 290.269 36.1866V38H286.09V5.58027H290.269V17.3451ZM290.269 32.4272C292.053 34.329 294.102 35.2799 296.417 35.2799C298.216 35.2799 299.646 34.5133 300.707 32.98C301.769 31.432 302.299 29.1321 302.299 26.0803C302.299 23.1907 301.798 21.0014 300.796 19.5124C299.793 18.0086 298.393 17.2567 296.594 17.2567C294.279 17.2567 292.171 18.5983 290.269 21.2815V32.4272Z" fill="#494949"/>
<path d="M51.2433 0H31.8115C29.995 0 28.3162 0.969046 27.4077 2.54253L17.6921 19.3707C16.784 20.9442 16.784 22.8823 17.6921 24.4553L27.4077 41.2836C28.3162 42.857 29.995 43.8261 31.8115 43.8261H51.2433C53.0594 43.8261 54.7381 42.857 55.6466 41.2836L65.3623 24.4553C66.2703 22.8823 66.2703 20.9442 65.3623 19.3707L55.6466 2.54253C54.7381 0.969046 53.0594 0 51.2433 0Z" fill="url(#paint0_linear_960_63)"/>
<path d="M27.4082 2.5423L17.6926 19.3705C16.7845 20.944 16.7845 22.8821 17.6926 24.4551L27.4082 41.2838C28.3167 42.8568 29.9955 43.8259 31.8115 43.8259H39.3306C39.3516 43.7914 39.3772 43.7607 39.3977 43.7257L50.3385 24.776C51.3611 23.0041 51.3611 20.822 50.3385 19.0501L39.3977 0.100361C39.3772 0.0654357 39.3516 0.0347035 39.3306 0.000244308H31.8115C29.995 -0.000221357 28.3167 0.968821 27.4082 2.5423Z" fill="url(#paint1_linear_960_63)"/>
<path d="M28.4698 24.337C29.2344 25.1203 30.365 25.5403 31.5939 25.3089C32.9285 25.0579 34.0219 23.9966 34.3027 22.6672C34.7763 20.4268 33.0799 18.4529 30.9229 18.4529C29.9851 18.4529 29.1404 18.8287 28.5219 19.4359C27.6004 20.3407 26.3915 20.8911 25.1002 20.8911H17.1253C16.9865 21.5659 16.9865 22.2592 17.1253 22.9335H24.9093C26.2309 22.934 27.5468 23.3908 28.4698 24.337Z" fill="url(#paint2_linear_960_63)"/>
<path d="M17.1255 20.8914H9.47317C8.15161 20.8914 6.83564 20.4346 5.91269 19.4883C5.14807 18.7046 4.01744 18.2846 2.78808 18.516C1.45349 18.7679 0.360099 19.8287 0.0797689 21.1582C-0.393347 23.3985 1.3026 25.372 3.45957 25.372C4.39742 25.372 5.24214 24.9967 5.86101 24.389C6.78209 23.4847 7.99095 22.9338 9.28224 22.9338H17.1259C16.9872 22.259 16.9872 21.5661 17.1255 20.8914Z" fill="url(#paint3_linear_960_63)"/>
<path d="M16.3528 11.1731C15.0313 11.1731 13.7153 10.7163 12.7923 9.76959C12.0277 8.98634 10.8971 8.56632 9.66771 8.79776C8.33311 9.04922 7.2402 10.1105 6.95941 11.4399C6.48629 13.6798 8.18224 15.6537 10.3392 15.6537C11.2771 15.6537 12.1218 15.278 12.7406 14.6707C13.6617 13.7659 14.8706 13.2155 16.1619 13.2155H21.2465L22.4255 11.1731H16.3528Z" fill="url(#paint4_linear_960_63)"/>
<path d="M16.3528 30.6104C15.0313 30.6104 13.7153 30.1536 12.7923 29.2069C12.0277 28.4232 10.8971 28.0036 9.66771 28.2351C8.33311 28.4865 7.2402 29.5478 6.95941 30.8768C6.48629 33.1171 8.18224 35.091 10.3392 35.091C11.2771 35.091 12.1218 34.7153 12.7406 34.108C13.6617 33.2032 14.8706 32.6524 16.1619 32.6524H22.4255L21.2465 30.6104H16.3528Z" fill="url(#paint5_linear_960_63)"/>
<path d="M35.3497 34.0553C36.1138 34.839 37.2445 35.2586 38.4734 35.0276C39.8084 34.7761 40.9014 33.7149 41.1821 32.3859C41.6557 30.1456 39.9593 28.1711 37.8023 28.1711C36.8645 28.1711 36.0198 28.5469 35.4014 29.1546C34.4803 30.0589 33.2714 30.6098 31.9801 30.6098H21.2456L22.4247 32.6518L31.7883 32.6522C33.1108 32.6527 34.4267 33.1095 35.3497 34.0553Z" fill="url(#paint6_linear_960_63)"/>
<path d="M28.4698 24.3368C29.2344 25.12 30.365 25.5401 31.5939 25.3086C32.9285 25.0576 34.0219 23.9964 34.3027 22.6669C34.7763 20.4266 33.0799 18.4526 30.9229 18.4526C29.9851 18.4526 29.1404 18.8284 28.5219 19.4357C27.6004 20.3405 26.3915 20.8909 25.1002 20.8909H17.1253C16.9865 21.5656 16.9865 22.259 17.1253 22.9333H24.9093C26.2309 22.9337 27.5468 23.3906 28.4698 24.3368Z" fill="white"/>
<path d="M35.3496 14.6181C36.1138 15.4018 37.2444 15.8213 38.4733 15.5904C39.8084 15.3389 40.9013 14.2781 41.1821 12.9487C41.6557 10.7083 39.9592 8.73438 37.8023 8.73438C36.8644 8.73438 36.0197 9.1097 35.4013 9.71739C34.4802 10.6217 33.2714 11.1726 31.9801 11.1726H22.4246L21.2455 13.215H31.7887C33.1107 13.2155 34.4267 13.6723 35.3496 14.6181Z" fill="white"/>
<path d="M35.3496 34.0553C36.1138 34.839 37.2444 35.2586 38.4733 35.0276C39.8084 34.7761 40.9013 33.7149 41.1821 32.3859C41.6557 30.1456 39.9592 28.1711 37.8023 28.1711C36.8644 28.1711 36.0197 28.5469 35.4013 29.1546C34.4802 30.0589 33.2714 30.6098 31.9801 30.6098H21.2455L22.4246 32.6518L31.7882 32.6522C33.1107 32.6527 34.4267 33.1095 35.3496 34.0553Z" fill="white"/>
<defs>
<linearGradient id="paint0_linear_960_63" x1="57.181" y1="50.6119" x2="29.5124" y2="-0.113909" gradientUnits="userSpaceOnUse">
<stop stop-color="#508C17"/>
<stop offset="0.1683" stop-color="#67A020"/>
<stop offset="0.5452" stop-color="#96C932"/>
<stop offset="0.8348" stop-color="#B3E33E"/>
<stop offset="1" stop-color="#BEEC42"/>
</linearGradient>
<linearGradient id="paint1_linear_960_63" x1="51.8868" y1="25.6244" x2="13.7383" y2="17.0912" gradientUnits="userSpaceOnUse">
<stop offset="0.0845" stop-color="#508C17"/>
<stop offset="0.1982" stop-color="#69A221"/>
<stop offset="0.3933" stop-color="#8EC22F"/>
<stop offset="0.5753" stop-color="#A8D939"/>
<stop offset="0.7372" stop-color="#B8E740"/>
<stop offset="0.8626" stop-color="#BEEC42"/>
</linearGradient>
<linearGradient id="paint2_linear_960_63" x1="52.328" y1="19.9898" x2="19.2056" y2="22.9648" gradientUnits="userSpaceOnUse">
<stop offset="0.0519" stop-color="#508C17"/>
<stop offset="0.2115" stop-color="#67A020"/>
<stop offset="0.5688" stop-color="#96C932"/>
<stop offset="0.8433" stop-color="#B3E33E"/>
<stop offset="1" stop-color="#BEEC42"/>
</linearGradient>
<linearGradient id="paint3_linear_960_63" x1="21.8304" y1="35.3857" x2="3.45844" y2="17.0137" gradientUnits="userSpaceOnUse">
<stop offset="0.0519" stop-color="#508C17"/>
<stop offset="0.2115" stop-color="#67A020"/>
<stop offset="0.5688" stop-color="#96C932"/>
<stop offset="0.8433" stop-color="#B3E33E"/>
<stop offset="1" stop-color="#BEEC42"/>
</linearGradient>
<linearGradient id="paint4_linear_960_63" x1="28.2262" y1="25.9739" x2="9.94254" y2="7.69021" gradientUnits="userSpaceOnUse">
<stop offset="0.0519" stop-color="#508C17"/>
<stop offset="0.2115" stop-color="#67A020"/>
<stop offset="0.5688" stop-color="#96C932"/>
<stop offset="0.8433" stop-color="#B3E33E"/>
<stop offset="1" stop-color="#BEEC42"/>
</linearGradient>
<linearGradient id="paint5_linear_960_63" x1="27.9721" y1="45.7469" x2="9.64777" y2="27.4225" gradientUnits="userSpaceOnUse">
<stop offset="0.0519" stop-color="#508C17"/>
<stop offset="0.2115" stop-color="#67A020"/>
<stop offset="0.5688" stop-color="#96C932"/>
<stop offset="0.8433" stop-color="#B3E33E"/>
<stop offset="1" stop-color="#BEEC42"/>
</linearGradient>
<linearGradient id="paint6_linear_960_63" x1="53.2497" y1="30.2438" x2="20.1269" y2="33.2189" gradientUnits="userSpaceOnUse">
<stop offset="0.0519" stop-color="#508C17"/>
<stop offset="0.2115" stop-color="#67A020"/>
<stop offset="0.5688" stop-color="#96C932"/>
<stop offset="0.8433" stop-color="#B3E33E"/>
<stop offset="1" stop-color="#BEEC42"/>
</linearGradient>
</defs>
</svg>
