<svg width="112" height="74" viewBox="0 0 112 74" fill="none" xmlns="http://www.w3.org/2000/svg">
<path d="M86.1417 0H53.4763C50.4226 0 47.6006 1.629 46.0734 4.27408L29.741 32.5629C28.2146 35.208 28.2146 38.466 29.741 41.1103L46.0734 69.3991C47.6006 72.0442 50.4226 73.6732 53.4763 73.6732H86.1417C89.1947 73.6732 92.0166 72.0442 93.5439 69.3991L109.876 41.1103C111.403 38.466 111.403 35.208 109.876 32.5629L93.5439 4.27408C92.0166 1.629 89.1947 0 86.1417 0Z" fill="url(#paint0_linear_910_103)"/>
<path d="M46.0741 4.27408L29.7418 32.5629C28.2153 35.208 28.2153 38.466 29.7418 41.1103L46.0741 69.3999C47.6014 72.0442 50.4233 73.6732 53.4763 73.6732H66.1161C66.1513 73.6152 66.1944 73.5636 66.2289 73.5049L84.6207 41.6496C86.3398 38.6711 86.3398 35.0029 84.6207 32.0243L66.2289 0.169093C66.1944 0.110383 66.1513 0.0587209 66.1161 0.000793739H53.4763C50.4226 1.09395e-05 47.6014 1.629 46.0741 4.27408Z" fill="url(#paint1_linear_910_103)"/>
<path d="M47.8588 40.9115C49.1442 42.2282 51.0448 42.9342 53.1106 42.5452C55.3541 42.1233 57.1921 40.3393 57.6641 38.1044C58.4603 34.3383 55.6085 31.02 51.9826 31.02C50.406 31.02 48.986 31.6518 47.9465 32.6725C46.3973 34.1935 44.3652 35.1188 42.1945 35.1188H28.7882C28.555 36.2531 28.555 37.4186 28.7882 38.5521H41.8735C44.0951 38.5529 46.3073 39.3208 47.8588 40.9115Z" fill="url(#paint2_linear_910_103)"/>
<path d="M28.7885 35.1196H15.9247C13.7031 35.1196 11.491 34.3516 9.93944 32.761C8.65409 31.4435 6.75345 30.7375 4.68686 31.1265C2.44336 31.55 0.60534 33.3332 0.134094 35.5681C-0.66123 39.3341 2.18972 42.6517 5.81565 42.6517C7.39221 42.6517 8.81222 42.0207 9.85256 40.9992C11.4009 39.479 13.4331 38.5529 15.6038 38.5529H28.7893C28.556 37.4186 28.556 36.2538 28.7885 35.1196Z" fill="url(#paint3_linear_910_103)"/>
<path d="M27.4897 18.7825C25.2681 18.7825 23.0559 18.0146 21.5044 16.4232C20.219 15.1065 18.3184 14.4004 16.2518 14.7895C14.0083 15.2122 12.1711 16.9962 11.699 19.2311C10.9037 22.9963 13.7547 26.3146 17.3806 26.3146C18.9572 26.3146 20.3771 25.6829 21.4175 24.6621C22.9659 23.1412 24.998 22.2159 27.1687 22.2159H35.7161L37.6981 18.7825H27.4897Z" fill="url(#paint4_linear_910_103)"/>
<path d="M27.4897 51.4573C25.2681 51.4573 23.0559 50.6894 21.5044 49.098C20.219 47.7805 18.3184 47.0752 16.2518 47.4643C14.0083 47.887 12.1711 49.671 11.699 51.9051C10.9037 55.6712 13.7547 58.9894 17.3806 58.9894C18.9572 58.9894 20.3771 58.3577 21.4175 57.3369C22.9659 55.816 24.998 54.8899 27.1687 54.8899H37.6981L35.7161 51.4573H27.4897Z" fill="url(#paint5_linear_910_103)"/>
<path d="M59.424 57.2485C60.7086 58.566 62.6092 59.2713 64.6751 58.883C66.9193 58.4603 68.7566 56.6763 69.2286 54.4422C70.0247 50.6761 67.173 47.3571 63.547 47.3571C61.9705 47.3571 60.5505 47.9888 59.5109 49.0103C57.9626 50.5305 55.9304 51.4566 53.7597 51.4566H35.7146L37.6967 54.8892L53.4372 54.8899C55.6603 54.8907 57.8725 55.6587 59.424 57.2485Z" fill="url(#paint6_linear_910_103)"/>
<path d="M47.8588 40.9115C49.1442 42.2282 51.0448 42.9342 53.1106 42.5452C55.3541 42.1233 57.1921 40.3393 57.6641 38.1044C58.4603 34.3383 55.6085 31.02 51.9826 31.02C50.406 31.02 48.986 31.6518 47.9465 32.6725C46.3973 34.1935 44.3652 35.1188 42.1945 35.1188H28.7882C28.555 36.2531 28.555 37.4186 28.7882 38.5521H41.8735C44.0951 38.5529 46.3073 39.3208 47.8588 40.9115Z" fill="white"/>
<path d="M59.424 24.5737C60.7086 25.8911 62.6092 26.5964 64.6751 26.2081C66.9193 25.7854 68.7566 24.0022 69.2286 21.7673C70.0247 18.0013 67.173 14.683 63.547 14.683C61.9705 14.683 60.5505 15.3139 59.5109 16.3355C57.9626 17.8557 55.9304 18.7817 53.7597 18.7817H37.6967L35.7146 22.2151H53.438C55.6603 22.2159 57.8725 22.9838 59.424 24.5737Z" fill="white"/>
<path d="M59.424 57.2485C60.7086 58.566 62.6092 59.2713 64.6751 58.883C66.9193 58.4603 68.7566 56.6763 69.2286 54.4422C70.0247 50.6761 67.173 47.3571 63.547 47.3571C61.9705 47.3571 60.5505 47.9888 59.5109 49.0103C57.9626 50.5305 55.9304 51.4566 53.7597 51.4566H35.7146L37.6967 54.8892L53.4372 54.8899C55.6603 54.8907 57.8725 55.6587 59.424 57.2485Z" fill="white"/>
<defs>
<linearGradient id="paint0_linear_910_103" x1="96.1232" y1="85.0803" x2="49.6113" y2="-0.191485" gradientUnits="userSpaceOnUse">
<stop stop-color="#508C17"/>
<stop offset="0.1683" stop-color="#67A020"/>
<stop offset="0.5452" stop-color="#96C932"/>
<stop offset="0.8348" stop-color="#B3E33E"/>
<stop offset="1" stop-color="#BEEC42"/>
</linearGradient>
<linearGradient id="paint1_linear_910_103" x1="87.2235" y1="43.0759" x2="23.0946" y2="28.7312" gradientUnits="userSpaceOnUse">
<stop offset="0.0845" stop-color="#508C17"/>
<stop offset="0.1982" stop-color="#69A221"/>
<stop offset="0.3933" stop-color="#8EC22F"/>
<stop offset="0.5753" stop-color="#A8D939"/>
<stop offset="0.7372" stop-color="#B8E740"/>
<stop offset="0.8626" stop-color="#BEEC42"/>
</linearGradient>
<linearGradient id="paint2_linear_910_103" x1="87.9653" y1="33.6036" x2="32.2854" y2="38.6048" gradientUnits="userSpaceOnUse">
<stop offset="0.0519" stop-color="#508C17"/>
<stop offset="0.2115" stop-color="#67A020"/>
<stop offset="0.5688" stop-color="#96C932"/>
<stop offset="0.8433" stop-color="#B3E33E"/>
<stop offset="1" stop-color="#BEEC42"/>
</linearGradient>
<linearGradient id="paint3_linear_910_103" x1="36.6977" y1="59.4851" x2="5.81375" y2="28.6011" gradientUnits="userSpaceOnUse">
<stop offset="0.0519" stop-color="#508C17"/>
<stop offset="0.2115" stop-color="#67A020"/>
<stop offset="0.5688" stop-color="#96C932"/>
<stop offset="0.8433" stop-color="#B3E33E"/>
<stop offset="1" stop-color="#BEEC42"/>
</linearGradient>
<linearGradient id="paint4_linear_910_103" x1="47.4493" y1="43.6631" x2="16.7138" y2="12.9276" gradientUnits="userSpaceOnUse">
<stop offset="0.0519" stop-color="#508C17"/>
<stop offset="0.2115" stop-color="#67A020"/>
<stop offset="0.5688" stop-color="#96C932"/>
<stop offset="0.8433" stop-color="#B3E33E"/>
<stop offset="1" stop-color="#BEEC42"/>
</linearGradient>
<linearGradient id="paint5_linear_910_103" x1="47.0222" y1="76.9023" x2="16.2183" y2="46.0984" gradientUnits="userSpaceOnUse">
<stop offset="0.0519" stop-color="#508C17"/>
<stop offset="0.2115" stop-color="#67A020"/>
<stop offset="0.5688" stop-color="#96C932"/>
<stop offset="0.8433" stop-color="#B3E33E"/>
<stop offset="1" stop-color="#BEEC42"/>
</linearGradient>
<linearGradient id="paint6_linear_910_103" x1="89.5146" y1="50.8412" x2="33.8341" y2="55.8425" gradientUnits="userSpaceOnUse">
<stop offset="0.0519" stop-color="#508C17"/>
<stop offset="0.2115" stop-color="#67A020"/>
<stop offset="0.5688" stop-color="#96C932"/>
<stop offset="0.8433" stop-color="#B3E33E"/>
<stop offset="1" stop-color="#BEEC42"/>
</linearGradient>
</defs>
</svg>
